<?xml version="1.0" encoding="utf-8"?>
<!-- Generator: Adobe Illustrator 25.2.0, SVG Export Plug-In . SVG Version: 6.00 Build 0)  -->
<svg version="1.1" id="Layer_1" xmlns="http://www.w3.org/2000/svg" xmlns:xlink="http://www.w3.org/1999/xlink" x="0px" y="0px"
	 viewBox="0 0 1920 1080" style="enable-background:new 0 0 1920 1080;" xml:space="preserve">
<style type="text/css">
	.st0{fill:#007F42;}
	.st1{fill:#FFFBCC;}
	.st2{fill:#0062FF;}
	.st3{fill:#FFFFFF;}
	.st4{fill:#B1FFA6;}
	.st5{fill:#FFFDC0;}
	.st6{fill:#FAFFCA;}
</style>
<g>
	<rect x="0.5" y="693.5" class="st0" width="1919" height="386"/>
	<path d="M1919,694v385H1V694H1919 M1920,693H0v387h1920V693L1920,693z"/>
</g>
<g>
	<circle class="st1" cx="439" cy="1274" r="28.5"/>
	<path d="M439,1246c15.4,0,28,12.6,28,28s-12.6,28-28,28c-15.4,0-28-12.6-28-28S423.6,1246,439,1246 M439,1245c-16,0-29,13-29,29
		s13,29,29,29s29-13,29-29S455,1245,439,1245L439,1245z"/>
</g>
<g>
	<rect x="0.5" y="0.5" class="st2" width="1919" height="692"/>
	<path d="M1919,1v691H1V1H1919 M1920,0H0v693h1920V0L1920,0z"/>
</g>
<g>
	<ellipse class="st3" cx="196" cy="118.5" rx="140.5" ry="48"/>
	<path d="M196,71c37.6,0,72.8,5,99.4,14.2c26.2,9,40.6,20.9,40.6,33.3s-14.4,24.3-40.6,33.3C268.8,161,233.6,166,196,166
		s-72.8-5-99.4-14.2C70.4,142.8,56,131,56,118.5s14.4-24.3,40.6-33.3C123.2,76,158.4,71,196,71 M196,70c-77.9,0-141,21.7-141,48.5
		S118.1,167,196,167s141-21.7,141-48.5S273.9,70,196,70L196,70z"/>
</g>
<g>
	<ellipse class="st3" cx="656.5" cy="142" rx="122" ry="48.5"/>
	<path d="M656.5,94c32.6,0,63.2,5.1,86.2,14.3c22.7,9.1,35.3,21.1,35.3,33.7s-12.5,24.6-35.3,33.7c-23,9.2-53.7,14.3-86.2,14.3
		s-63.2-5.1-86.2-14.3c-22.7-9.1-35.3-21.1-35.3-33.7s12.5-24.6,35.3-33.7C593.3,99.1,623.9,94,656.5,94 M656.5,93
		C588.8,93,534,114.9,534,142s54.8,49,122.5,49S779,169.1,779,142S724.2,93,656.5,93L656.5,93z"/>
</g>
<g>
	<ellipse class="st3" cx="1200" cy="134.5" rx="115.5" ry="56"/>
	<path d="M1200,79c63.4,0,115,24.9,115,55.5s-51.6,55.5-115,55.5s-115-24.9-115-55.5S1136.6,79,1200,79 M1200,78
		c-64.1,0-116,25.3-116,56.5s51.9,56.5,116,56.5s116-25.3,116-56.5S1264.1,78,1200,78L1200,78z"/>
</g>
<g>
	<circle class="st1" cx="225" cy="521" r="24.5"/>
	<path d="M225,497c13.2,0,24,10.8,24,24s-10.8,24-24,24s-24-10.8-24-24S211.8,497,225,497 M225,496c-13.8,0-25,11.2-25,25
		s11.2,25,25,25s25-11.2,25-25S238.8,496,225,496L225,496z"/>
</g>
<g>
	<rect x="209.5" y="546.5" class="st4" width="31" height="89"/>
	<path d="M240,547v88h-30v-88H240 M241,546h-32v90h32V546L241,546z"/>
</g>
<g>
	<rect x="209.5" y="636.4" class="st1" width="10.2" height="56"/>
	<path d="M219.2,636.9v55H210v-55H219.2 M220.2,635.9H209v57h11.2V635.9L220.2,635.9z"/>
</g>
<g>
	<rect x="230.5" y="636.5" class="st1" width="10" height="56"/>
	<path d="M240,637v55h-9v-55H240 M241,636h-11v57h11V636L241,636z"/>
</g>
<g>
	<rect x="200.5" y="569.5" class="st5" width="8" height="57"/>
	<path d="M208,570v56h-7v-56H208 M209,569h-9v58h9V569L209,569z"/>
</g>
<g>
	<rect x="241.5" y="569.5" class="st6" width="7" height="57"/>
	<path d="M248,570v56h-6v-56H248 M249,569h-8v58h8V569L249,569z"/>
</g>
</svg>
