<?xml version="1.0" encoding="utf-8"?>
<!-- Generator: Adobe Illustrator 25.2.0, SVG Export Plug-In . SVG Version: 6.00 Build 0)  -->
<svg version="1.1" id="Layer_1" xmlns="http://www.w3.org/2000/svg" xmlns:xlink="http://www.w3.org/1999/xlink" x="0px" y="0px"
	 viewBox="0 0 612 792" style="enable-background:new 0 0 612 792;" xml:space="preserve">
<style type="text/css">
	.st0{fill:#964D22;stroke:#000000;stroke-miterlimit:10;}
	.st1{fill:#F9ED28;stroke:#000000;stroke-miterlimit:10;}
	.st2{fill:#4552A4;stroke:#000000;stroke-miterlimit:10;}
	.st3{fill:#EBCDAC;stroke:#000000;stroke-miterlimit:10;}
	.st4{fill:#D2B48C;stroke:#000000;stroke-miterlimit:10;}
	.st5{fill:#654321;stroke:#000000;stroke-miterlimit:10;}
	.st6{fill:#F7EC13;stroke:#000000;stroke-miterlimit:10;}
</style>
<rect class="st0" width="612" height="556.6"/>
<rect x="759.7" y="574.9" class="st0" width="652.2" height="556.6"/>
<rect y="552.6" class="st1" width="612" height="239.4"/>
<rect x="23.2" y="153.5" class="st2" width="139.6" height="134"/>
<rect x="245.3" y="153.5" class="st2" width="140.9" height="134"/>
<rect x="468.5" y="153.5" class="st2" width="134" height="134"/>
<rect x="93.1" y="153.5" class="st0" width="0" height="134"/>
<rect x="23.2" y="220.5" class="st0" width="139.6" height="0"/>
<rect x="315.7" y="153.5" class="st0" width="1.3" height="134"/>
<rect x="247.8" y="220.5" class="st0" width="138.4" height="0"/>
<rect x="537.7" y="153.5" class="st0" width="1.3" height="134"/>
<rect x="468.5" y="218.3" class="st0" width="134" height="2.2"/>
<circle class="st3" cx="116.2" cy="358.3" r="40.7"/>
<rect x="96.2" y="397.5" class="st4" width="40.9" height="115.8"/>
<rect x="89.9" y="416.4" class="st3" width="8.8" height="57.9"/>
<rect x="137.1" y="416.4" class="st3" width="9.4" height="54.7"/>
<rect x="98.7" y="508.8" class="st3" width="11.3" height="56"/>
<rect x="122" y="508.8" class="st3" width="12.6" height="56"/>
<ellipse class="st5" cx="453.1" cy="437.4" rx="90.3" ry="33.6"/>
<rect x="439.6" y="470.7" class="st5" width="18.3" height="111.7"/>
<rect x="414.4" y="579.3" class="st5" width="82.4" height="27"/>
<ellipse class="st3" cx="393.7" cy="558.3" rx="27.7" ry="31.7"/>
<rect x="292.4" y="550.3" class="st4" width="73.6" height="24.5"/>
<rect x="311.7" y="541.7" class="st3" width="46.8" height="9.7"/>
<rect x="310.4" y="575.5" class="st3" width="49.3" height="7.5"/>
<rect x="255.3" y="552.6" class="st3" width="37.1" height="7.9"/>
<rect x="255.3" y="567.3" class="st3" width="37.1" height="7.5"/>
<polygon class="st6" points="385.4,550 376.9,552 373.1,559.8 369.4,552.8 361,552.4 367.2,546 365.8,538 373.3,541.1 380.9,536.5 
	379.4,544.8 "/>
<polygon class="st6" points="403.9,556.1 399,561.6 401.5,568.6 393.9,565.9 387.3,569.9 387.5,562.7 380.9,558.2 388.7,556.5 
	391.1,549.7 395.8,555.8 "/>
<polygon class="st6" points="421.3,563.4 414.4,559.7 407.3,563.3 408.7,555.5 403.1,550 411,548.9 414.5,541.9 417.9,549 
	425.8,550.2 420.1,555.6 "/>
<polygon class="st6" points="405.4,526.4 398.7,523.8 392.9,527.9 393.2,520.7 387.6,516.3 394.4,514.4 396.8,507.6 400.7,513.7 
	407.9,513.9 403.4,519.5 "/>
<polygon class="st6" points="384.8,528.2 376.8,527.5 371.3,533.4 369.9,525.9 362.6,523 369.7,519 370.6,511.4 376.5,516.5 
	384.4,514.6 380.9,521.7 "/>
<polygon class="st6" points="417.3,513.8 421.4,522.2 430.7,523.5 424,530.1 425.6,539.3 417.3,534.9 409,539.3 410.6,530.1 
	403.9,523.5 413.1,522.2 "/>
</svg>
